<svg height="96" width="96" xmlns="http://www.w3.org/2000/svg" xmlns:xlink="http://www.w3.org/1999/xlink"><linearGradient id="a"><stop offset="0" stop-color="#fff"/><stop offset="1" stop-color="#fff" stop-opacity="0"/></linearGradient><linearGradient id="b" gradientUnits="userSpaceOnUse" x1="48" x2="48" y1="90" y2="5.987717"><stop offset="0" stop-color="#e6e6e6"/><stop offset="1" stop-color="#f5f5f5"/></linearGradient><linearGradient id="c" gradientUnits="userSpaceOnUse" x1="36.357143" x2="36.357143" xlink:href="#a" y1="6" y2="63.893143"/><linearGradient id="d" gradientTransform="matrix(1.0058652 0 0 .994169 100 0)" gradientUnits="userSpaceOnUse" x1="45.447727" x2="45.447727" y1="92.539597" y2="7.01654"><stop offset="0"/><stop offset="1" stop-opacity=".588235"/></linearGradient><linearGradient id="e" gradientTransform="matrix(1.0238095 0 0 1.0119048 -1.142857 -98.071429)" gradientUnits="userSpaceOnUse" x1="32.251034" x2="32.251034" xlink:href="#d" y1="6.131708" y2="90.238609"/><linearGradient id="f" gradientTransform="translate(0 -97)" gradientUnits="userSpaceOnUse" x1="32.251034" x2="32.251034" xlink:href="#d" y1="6.131708" y2="90.238609"/><radialGradient id="g" cx="48" cy="90.171875" gradientTransform="matrix(1.1573129 0 0 .99590774 -7.551021 .197132)" gradientUnits="userSpaceOnUse" r="42" xlink:href="#a"/><linearGradient id="h" gradientUnits="userSpaceOnUse" x1="17.385157" x2="17.385157" y1="89.637146" y2="6.50738"><stop offset="0" stop-color="#5b9614"/><stop offset="1" stop-color="#78c71a"/></linearGradient><linearGradient id="i" gradientUnits="userSpaceOnUse" x1="56" x2="56" y1="80" y2="16"><stop offset="0" stop-color="#d5d5d5"/><stop offset="1" stop-color="#e3e3e3"/></linearGradient><linearGradient id="j" gradientUnits="userSpaceOnUse" x1="8" x2="8" y1="16" y2="48"><stop offset="0" stop-color="#e1ff88"/><stop offset="1" stop-color="#e1ff88" stop-opacity="0"/></linearGradient><clipPath id="k"><path d="m12 6c-3.324 0-6 2.676-6 6v72c0 3.324 2.676 6 6 6h12v-84z"/></clipPath><filter id="l" color-interpolation-filters="sRGB" height="1.384" width="1.384" x="-.192" y="-.192"><feGaussianBlur stdDeviation="5.28"/></filter><linearGradient id="m" gradientUnits="userSpaceOnUse" x1="48" x2="48" xlink:href="#a" y1="20.220806" y2="138.66119"/><clipPath id="n"><path d="m24 6v84h60c3.324 0 6-2.676 6-6v-72c0-3.324-2.676-6-6-6z"/></clipPath><g><g fill="url(#e)"><path d="m12-95.03125c-5.5110903 0-10.03125 4.52016-10.03125 10.03125v71c0 5.5110902 4.5201598 10.03125 10.03125 10.03125h72c5.51109 0 10.03125-4.5201597 10.03125-10.03125v-71c0-5.51109-4.52016-10.03125-10.03125-10.03125z" opacity=".08" transform="scale(1 -1)"/><path d="m12-94.03125c-4.971633 0-9.03125 4.059617-9.03125 9.03125v71c0 4.9716329 4.0596171 9.03125 9.03125 9.03125h72c4.971633 0 9.03125-4.059617 9.03125-9.03125v-71c0-4.971633-4.059617-9.03125-9.03125-9.03125z" opacity=".1" transform="scale(1 -1)"/><path d="m12-93c-4.4091333 0-8 3.590867-8 8v71c0 4.4091333 3.5908667 8 8 8h72c4.409133 0 8-3.5908667 8-8v-71c0-4.409133-3.590867-8-8-8z" opacity=".2" transform="scale(1 -1)"/><rect height="85" opacity=".3" rx="7" transform="scale(1 -1)" width="86" x="5" y="-92"/></g><rect fill="url(#f)" height="84" opacity=".45" rx="6" transform="scale(1 -1)" width="84" x="6" y="-91"/></g><g><path d="m24 6v84h60c3.324 0 6-2.676 6-6v-72c0-3.324-2.676-6-6-6z" fill="url(#b)"/><path d="m12 6c-3.324 0-6 2.676-6 6v72c0 3.324 2.676 6 6 6h12v-84z" fill="url(#h)"/><rect fill="#f0f" height="84" rx="6" width="84" x="-94" y="6"/></g><rect height="66" rx="12" style="opacity:.2;stroke:#fff;stroke-width:.5;stroke-linecap:round;clip-path:url(#k);filter:url(#l);fill:url(#m)" width="66" x="15" y="15"/><rect height="66" rx="12" style="opacity:.5;stroke:#fff;stroke-width:.5;stroke-linecap:round;clip-path:url(#n);fill:url(#m);filter:url(#l)" width="66" x="15" y="15"/><path d="m33 16v7 57h8v-56h40v-8h-41z" fill="url(#i)"/><g fill="#666"><path d="m110 15h1v66h-1z" opacity=".3"/><path d="m-24-152h1v50h-1z" opacity=".3" transform="matrix(0 -1 -1 0 0 0)"/><path d="m130 15h1v66h-1z" opacity=".3"/><path d="m-32-152h1v50h-1z" opacity=".3" transform="matrix(0 -1 -1 0 0 0)"/><path d="m-40-152h1v50h-1z" opacity=".3" transform="matrix(0 -1 -1 0 0 0)"/><path d="m-48-152h1v50h-1z" opacity=".3" transform="matrix(0 -1 -1 0 0 0)"/><path d="m-56-152h1v50h-1z" opacity=".3" transform="matrix(0 -1 -1 0 0 0)"/><path d="m-64-152h1v50h-1z" opacity=".3" transform="matrix(0 -1 -1 0 0 0)"/><path d="m-72-152h1v50h-1z" opacity=".3" transform="matrix(0 -1 -1 0 0 0)"/></g><path d="m24 6h1v84h-1z" fill="#fff" opacity=".5"/><path d="m23 6h1v84h-1z" opacity=".05"/><path d="m60 39h21v9h-21z" fill="#82e60c" opacity=".6"/><path d="m60 24h21v15h-21z" fill="#8ff01b" opacity=".3"/><path d="m41 39h19v9h-19z" fill="#8ff01b" opacity=".3"/><path d="m40 15v8h-8v1h8v7h-8v1h8v7h-8v1h8v7h-8v1h8v7h-8v1h8v7h-8v1h8v7h-8v1h8v9h1v-9h19v9h1v-9h21v-1h-21v-7h21v-1h-21v-7h21v-1h-21v-7h21v-1h-21v-7h21v-1h-21v-7h21v-1h-21v-7h21v-1h-21v-8h-1v8h-19v-8zm1 9h19v7h-19zm0 8h19v7h-19zm0 8h19v7h-19zm0 8h19v7h-19zm0 8h19v7h-19zm0 8h19v7h-19z" opacity=".2"/><path d="m32 15v.5 65 .5h.5 49 .5v-.5-65-.5h-.5-49zm1 1h48v64h-48z" fill="#808080"/><path d="m33 39h8v9h-8z" fill="#6e6e6e" opacity=".2"/><path d="m60 15h21v9h-21z" fill="#6e6e6e" opacity=".2"/><path d="m51.212891 21-.244141-.703125h-1.048828l-.244141.703125h-.576172l1.003907-2.751953h.679687l1 2.751953zm-.644532-1.927734c-.01563-.04557-.03125-.09114-.04687-.136719-.01432-.04687-.02735-.08919-.03906-.126953-.01042-.03906-.01953-.07096-.02734-.0957-.0065-.02474-.01042-.03841-.01172-.04102-.0013.0039-.0052.01823-.01172.04297-.0065.02474-.01563.05599-.02734.09375-.01042.03776-.02344.08008-.03906.126953-.01432.04557-.0293.09115-.04492.136719l-.271484.791015h.791016l-.271485-.791015" fill="#4d4d4d"/><path d="m71.707031 20.214844c-.000002.139323-.028.259115-.08398.359375-.05599.09896-.132815.180339-.230469.24414-.09636.0625-.208986.108724-.337891.138672-.128912.028646-.26563.042969-.41016.042969h-1.376953v-2.751953h1.259766c.162758.000003.30729.01433.433593.04297.127603.02735.235024.06966.322266.126953.08724.05729.152992.129559.197266.216797.04557.08594.06836.187502.06836.304687-.000002.156252-.04362.288413-.130859.396484-.08594.106773-.21745.179038-.394532.216797.222655.02604.391925.09636.507813.210938.117185.113282.175779.263673.175781.451172m-.738282-1.197267c-.000002-.123696-.03972-.211586-.119141-.263672-.07813-.05208-.194663-.07812-.349609-.07813h-.65625v.681641h.660156c.162759.000002.280597-.02799.353516-.08398.07422-.05729.111326-.142576.111328-.255859m.160156 1.152344c-.000002-.07292-.01432-.134114-.04297-.183594s-.06836-.08919-.11914-.119141c-.04948-.02995-.108075-.05143-.175781-.06445-.06641-.01302-.138674-.01953-.216797-.01953h-.730469v.789063h.751953c.07552 0 .145832-.0059.210938-.01758.0651-.01302.121091-.0345.167968-.06445.04818-.03125.08594-.07292.113282-.125.02734-.05208.04101-.117186.04102-.195312" fill="#4d4d4d"/><path d="m35.583984 29v-.408203h.681641v-1.876953l-.660156.412109v-.431641l.689453-.447265h.519531v2.34375h.630859v.408203z" fill="#4d4d4d"/><path d="m35.470703 37v-.380859c.0625-.136719.138672-.259765.228516-.369141.08984-.110676.183593-.211588.28125-.302734.09896-.09245.196613-.177734.292968-.25586.09766-.07943.184895-.155597.261719-.228515.07812-.07422.141275-.148436.189453-.222657.04818-.07422.07227-.152993.07227-.236328-.000001-.122393-.0306-.212888-.0918-.271484-.0612-.05859-.151043-.08789-.269531-.08789-.117189.000003-.207032.0319-.269531.0957-.0612.0625-.100913.156904-.119141.283203l-.552734-.03125c.01302-.10807.03971-.209633.08008-.304687.04036-.09505.09766-.178383.171875-.25.07552-.07161.16927-.127601.28125-.167969.11328-.04166.248046-.0625.404297-.0625.148436.000003.279946.01758.394531.05273.114582.03386.210936.08399.289062.15039.07812.06641.137368.147789.177735.244141.04036.09505.06054.203778.06055.326172-.000002.128908-.02539.245444-.07617.349609-.05078.104168-.115887.200522-.195313.289063-.07943.08724-.16797.169272-.265625.246093-.09636.07682-.190105.151694-.28125.22461-.09115.07292-.17448.146485-.25.220703-.07422.07422-.129558.153646-.166015.238281h1.277343v.451172h-1.925781" fill="#4d4d4d"/><path d="m37.412109 44.236328c-.000002.125001-.02083.237631-.0625.337891-.04037.09896-.101564.183594-.183593.253906-.08203.07031-.184247.124349-.306641.162109-.121095.03646-.262371.05469-.423828.05469-.179689 0-.331381-.02279-.455078-.06836-.122397-.04557-.223308-.105468-.302735-.179687-.07813-.07552-.13737-.160807-.177734-.255859-.03906-.09505-.06445-.191406-.07617-.289063l.558594-.04883c.0078.05859.02213.112631.04297.162109.02213.04818.05143.08984.08789.125s.08073.0625.132813.08203c.05338.01823.115884.02734.1875.02734.131509.000001.233722-.03255.30664-.09766.07292-.0651.109374-.164713.109375-.298828-.000001-.08203-.01758-.147786-.05273-.197266-.03386-.04948-.07747-.08724-.130859-.113281-.05208-.02734-.108726-.04557-.169922-.05469-.0612-.0091-.119142-.01367-.173828-.01367h-.191407v-.44336h.179688c.05469.000002.110025-.0052.166015-.01563.05729-.01042.108723-.02929.154297-.05664.04557-.02734.08268-.0651.111328-.113282.02864-.04948.04297-.111977.04297-.1875-.000001-.113279-.0319-.20182-.0957-.265625-.0625-.0651-.154298-.09765-.275391-.09766-.113282.000003-.205079.03125-.27539.09375-.06901.0625-.108725.151044-.119141.265625l-.548828-.03906c.01563-.128904.05078-.240883.105469-.335938.05599-.09505.125651-.173825.208984-.236328.08463-.0625.18164-.108721.291016-.138672.109374-.03125.225259-.04687.347656-.04687.161457.000003.300129.01953.416016.05859.115884.03907.210936.0918.285156.158203.07422.06641.128904.143883.164062.232422.03515.08854.05273.182945.05273.283203-.000002.08073-.01172.156252-.03516.226563-.02344.06901-.05925.131512-.107422.1875-.04688.05469-.107424.102215-.181641.142578-.07422.03906-.162111.06836-.263672.08789v.0078c.11328.01302.211587.03906.294922.07813.08333.03776.151691.08529.205078.142578.05338.05729.0931.122397.119141.195312.02604.07162.03906.147788.03906.228516" fill="#4d4d4d"/><path d="m37.167969 52.439453v.560547h-.523438v-.560547h-1.251953v-.412109l1.162109-1.779297h.613282v1.783203h.367187v.408203zm-.523438-1.308594c-.000001-.02213-.000001-.05078 0-.08594.0013-.03646.0026-.07357.0039-.111328.0026-.03776.0046-.07357.0059-.107422.0026-.03515.0052-.0625.0078-.08203-.0065.01432-.01693.03516-.03125.0625-.01432.02604-.0306.05469-.04883.08594-.01693.02995-.03516.0599-.05469.08984-.01823.02995-.03451.05599-.04883.07813l-.638672.970703h.804687v-.900391" fill="#4d4d4d"/><path d="m37.445312 60.083984c-.000002.138022-.02214.265626-.06641.382813-.04297.115886-.107424.216797-.193359.302734-.08594.08464-.19271.151042-.320313.199219-.126303.04687-.272787.07031-.439453.07031-.153647 0-.287761-.01823-.402344-.05469-.114583-.03776-.211589-.08919-.291015-.154297-.07813-.06641-.139974-.14388-.185547-.232422-.04427-.08854-.07487-.183593-.0918-.285156l.548828-.04492c.01042.04297.02474.08464.04297.125.01953.04037.04622.07617.08008.107422.03385.03125.07552.05664.125.07617.04948.01823.109374.02734.179688.02734.136717 0 .245441-.04362.326171-.13086.08203-.08724.123046-.21289.123047-.376953-.000001-.07292-.01042-.138671-.03125-.197266-.01953-.05859-.04818-.108722-.08594-.15039-.03646-.04167-.08203-.07357-.136719-.0957-.05339-.02213-.114584-.0332-.183594-.0332-.09115.000001-.166016.01758-.224609.05273-.05859.03386-.108074.07552-.148438.125h-.535156l.0957-1.548828h1.654297v.408203h-1.15625l-.04492.695312c.05469-.04818.123697-.08919.207032-.123046.08333-.03515.180337-.05273.291015-.05273.135416.000002.256509.02214.363281.06641.10677.04427.197264.106122.271485.185547.07422.07943.130857.175132.169922.28711.03906.110678.05859.233725.05859.36914" fill="#4d4d4d"/><path d="m37.412109 68.099609c-.000002.138022-.01953.264975-.05859.38086-.03907.114583-.09766.213542-.175782.296875-.07682.08203-.173178.146484-.289062.193359-.115887.04557-.250001.06836-.402344.06836-.324219 0-.573568-.113281-.748047-.339843-.173177-.227864-.259766-.565104-.259765-1.011719-.000001-.490884.08789-.860024.263671-1.107422.177083-.248695.429687-.373044.757813-.373047.109374.000003.208983.01172.298828.03516.08984.02214.16992.0586.240234.109375.07031.05078.130207.116539.179688.197266.04948.07943.08919.176435.119141.291016l-.517579.07227c-.02604-.09635-.06836-.165362-.126953-.207031-.0586-.04297-.126954-.06445-.205078-.06445-.147136.000002-.263021.07357-.347656.220703-.08333.147138-.125001.370445-.125.669922.05859-.09766.139973-.172524.244141-.224609.104165-.05208.222004-.07812.353515-.07813.121093.000001.230467.02018.328125.06055.09896.03906.182941.09636.251953.171875.07031.07422.124347.165366.16211.273438.03776.108074.05664.229819.05664.365234m-.550781.01563c-.000001-.07422-.0085-.140624-.02539-.199218-.01693-.05989-.04297-.110676-.07813-.152344-.03386-.04167-.07617-.07357-.126953-.0957-.05078-.02344-.109376-.03516-.175781-.03516-.04818.000002-.09636.0078-.144531.02344-.04818.01563-.09115.04102-.128906.07617-.03776.03386-.06836.07748-.0918.130859-.02344.05339-.03516.11784-.03516.19336 0 .07813.0098.151042.0293.21875.01953.06771.04687.126953.08203.177734.03646.04948.08008.08854.130859.117187.05078.02734.108072.04102.171875.04102.123697.000001.220051-.04362.289062-.130859.06901-.08854.103515-.210286.103516-.365235" fill="#4d4d4d"/><path d="m37.380859 74.683594c-.123699.195314-.240887.384767-.351562.568359-.109377.183595-.20508.368491-.28711.554688-.08203.184896-.147136.375651-.195312.572265-.04688.195313-.07031.402344-.07031.621094h-.572265c-.000001-.217448.02539-.423828.07617-.619141.05208-.196613.122395-.388019.210937-.574218.08854-.186197.191405-.36979.308594-.550782.117186-.182289.240884-.367836.371094-.55664h-1.367188v-.451172h1.876953v.435547" fill="#4d4d4d"/><path d="m60 39v9h22v-9zm1 1h20v7h-20z" fill="#54930a" opacity=".7"/><path d="m10 14c-1.108 0-2 .892-2 2v10c0 1.108.892 2 2 2h6v-4l-4.03125-.03125v-5.96875h6.03125v4h4v-6c0-1.108-.892-2-2-2zm8 10v4h4v-4z" fill="url(#j)" opacity=".6"/><path d="m24 6v2h58 2c2.781848 0 5 2.218152 5 5v2 68 2c0 .364295-.05212.720988-.125 1.0625-.04415.206893-.08838.397658-.15625.59375-.0077.02195-.0233.04069-.03125.0625-.06274.173739-.138383.367449-.21875.53125-.04158.0828-.07904.169954-.125.25-.0546.09721-.126774.18835-.1875.28125-.09411.140965-.204921.275995-.3125.40625-.143174.17445-.303141.346998-.46875.5-.01117.0102-.01998.02115-.03125.03125-.138386.125556-.285091.234436-.4375.34375-.102571.07315-.204318.153364-.3125.21875-.0074.0045-.02384-.0044-.03125 0-.232039.138728-.462548.274778-.71875.375.301527-.0968.596455-.204138.875-.34375.55709-.279224 1.060053-.665694 1.5-1.09375.219973-.214028.409366-.441865.59375-.6875s.355408-.507743.5-.78125c.14012-.265048.276135-.524729.375-.8125.01041-.03078.02133-.06274.03125-.09375.09046-.278085.1388-.579404.1875-.875.0524-.31805.09375-.634029.09375-.96875v-2-68-2c0-3.324-2.676-6-6-6z" fill="url(#c)" opacity=".5"/><path d="m12 90c-3.324 0-6-2.676-6-6v-2-68-2c0-.334721.04135-.6507.09375-.96875.0487-.295596.09704-.596915.1875-.875.00988-.03038.020892-.0636.03125-.09375.098865-.287771.2348802-.547452.375-.8125.1445918-.273507.3156161-.535615.5-.78125s.3737765-.473472.59375-.6875c.439947-.428056.94291-.814526 1.5-1.09375.278545-.139612.5734731-.246947.875-.34375-.2562018.100222-.4867109.236272-.71875.375-.00741.0044-.023866-.0045-.03125 0-.031933.0193-.062293.04251-.09375.0625-.120395.0767-.2310226.163513-.34375.25-.1061728.0808-.2132809.161112-.3125.25-.1779299.161433-.3474596.345388-.5.53125-.1075789.130255-.2183939.265285-.3125.40625-.025089.03838-.038446.08587-.0625.125-.064763.103032-.1302275.204517-.1875.3125-.1010083.194706-.2056748.415701-.28125.625-.00796.02181-.023589.04055-.03125.0625-.0318251.09195-.0358045.186831-.0625.28125-.0303323.106618-.0703894.203031-.09375.3125-.0728786.341512-.125.698205-.125 1.0625v2 68 2c0 2.781848 2.2181517 5 5 5h2 68 2c2.781848 0 5-2.218152 5-5v-2-68-2c0-.364295-.05212-.720988-.125-1.0625-.04415-.206893-.08838-.397658-.15625-.59375-.0077-.02195-.0233-.04069-.03125-.0625-.06274-.173739-.138383-.367449-.21875-.53125-.04158-.0828-.07904-.169954-.125-.25-.0546-.09721-.126774-.18835-.1875-.28125-.09411-.140965-.204921-.275995-.3125-.40625-.143174-.17445-.303141-.346998-.46875-.5-.01117-.0102-.01998-.02115-.03125-.03125-.138386-.125556-.285091-.234436-.4375-.34375-.102571-.07315-.204318-.153364-.3125-.21875-.0074-.0045-.02384.0044-.03125 0-.232039-.138728-.462548-.274778-.71875-.375.301527.0968.596455.204138.875.34375.55709.279224 1.060053.665694 1.5 1.09375.219973.214028.409366.441865.59375.6875s.355408.507743.5.78125c.14012.265048.276135.524729.375.8125.01041.03078.02133.06274.03125.09375.09046.278085.1388.579404.1875.875.0524.31805.09375.634029.09375.96875v2 68 2c0 3.324-2.676 6-6 6z" fill="url(#g)" opacity=".4"/><path d="m12 6c-3.324 0-6 2.676-6 6v2 68 2c0 .334721.04135.6507.09375.96875.033021.200429.079068.397086.125.59375.019951.07449.039796.145448.0625.21875.0058.0192-.00618.04351 0 .0625.00988.03038.020892.0636.03125.09375.018567.05405.041531.103965.0625.15625.090684.226115.1986954.440979.3125.65625.1445918.273507.3156161.535615.5.78125s.3737765.473472.59375.6875c.439947.428056.94291.814526 1.5 1.09375.278545.139612.5734731.246947.875.34375-.2562018-.100222-.4867109-.236272-.71875-.375-.00741-.0044-.023866.0045-.03125 0-.031933-.0193-.062293-.04251-.09375-.0625-.120395-.0767-.2310226-.163513-.34375-.25-.1061728-.0808-.2132809-.161112-.3125-.25-.1779299-.161433-.3474596-.345388-.5-.53125-.1075789-.130255-.2183939-.265285-.3125-.40625-.025089-.03838-.038446-.08587-.0625-.125-.064763-.103032-.1302275-.204517-.1875-.3125-.1010083-.194706-.2056748-.415701-.28125-.625-.00796-.02181-.023589-.04055-.03125-.0625-.0318251-.09195-.0358045-.186831-.0625-.28125-.0303323-.106618-.0703894-.203031-.09375-.3125-.0728786-.341512-.125-.698205-.125-1.0625v-2-68-2c0-2.781848 2.2181517-5 5-5h2 10v-2z" fill="url(#c)" opacity=".3"/></svg>