<svg enable-background="new 0 0 496 496" viewBox="0 0 496 496" xmlns="http://www.w3.org/2000/svg"><path d="m496 428c0 6.4-5.6 12-12 12h-472c-6.4 0-12-5.6-12-12 0-6.4 5.6-12 12-12h472c6.4 0 12 5.6 12 12z" fill="#719fa3"/><path d="m24 56h88v344h-88z" fill="#1589ad"/><path d="m24 56h88v344" fill="#04567f"/><path d="m144 128h88v272h-88z" fill="#24966a"/><path d="m144 128h88v272" fill="#007763"/><path d="m264 208h88v192h-88z" fill="#e8961f"/><path d="m264 208h88v192" fill="#e57520"/><path d="m384 272h88v128h-88z" fill="#d32a0f"/><path d="m384 272h88v128" fill="#af1909"/></svg>