<svg height="474.58" viewBox="0 0 512.42 474.58" width="512.42" xmlns="http://www.w3.org/2000/svg" xmlns:xlink="http://www.w3.org/1999/xlink"><linearGradient id="a" gradientUnits="userSpaceOnUse" x1="251.22" x2="297.42" y1="89.52" y2="89.52"><stop offset="0" stop-color="#ecc4d7"/><stop offset=".42" stop-color="#efd4d1"/><stop offset="1" stop-color="#f2eac9"/></linearGradient><linearGradient id="b" gradientUnits="userSpaceOnUse" x1="205.14" x2="218.37" y1="62.74" y2="62.74"><stop offset=".02" stop-color="#fff" stop-opacity="0"/><stop offset=".58" stop-color="#fff" stop-opacity=".39"/><stop offset=".68" stop-color="#fff" stop-opacity=".68"/><stop offset="1" stop-color="#fff"/></linearGradient><linearGradient id="c" gradientUnits="userSpaceOnUse" x1="387.53" x2="389.78" y1="225.32" y2="278.28"><stop offset="0" stop-opacity="0"/><stop offset=".99"/></linearGradient><linearGradient id="d" x1="24.43" x2="243.35" xlink:href="#c" y1="271.2" y2="271.2"/><linearGradient id="e" x1="310.41" x2="307.03" xlink:href="#c" y1="378.11" y2="324.03"/><linearGradient id="f" x1="391.31" x2="391.88" xlink:href="#c" y1="372.8" y2="337.03"/><linearGradient id="g" x1="124.3" x2="123.52" xlink:href="#c" y1="435.42" y2="379.17"/><linearGradient id="h" x1="152.44" x2="164.35" xlink:href="#c" y1="412.19" y2="-48.84"/><linearGradient id="i" x1="314.44" x2="316.13" xlink:href="#c" y1="227.93" y2="274.69"/><linearGradient id="j" x1="341.82" x2="348.96" xlink:href="#c" y1="254.25" y2="254.25"/><linearGradient id="k" x1="332.86" x2="340" xlink:href="#c" y1="254.25" y2="254.25"/><linearGradient id="l" x1="324.01" x2="331.16" xlink:href="#c" y1="254.25" y2="254.25"/><linearGradient id="m" x1="396.33" x2="635.31" xlink:href="#c" y1="196.28" y2="201.53"/><linearGradient id="n" x1="375.45" x2="817.78" xlink:href="#c" y1="144.91" y2="154.63"/><linearGradient id="o" x1="465.24" x2="468.91" xlink:href="#c" y1="247.02" y2="321.61"/><linearGradient id="p" gradientUnits="userSpaceOnUse" x1="593.04" x2="-212.93" y1="492.04" y2="426.17"><stop offset="0" stop-opacity="0"/><stop offset=".41" stop-opacity=".41"/><stop offset=".99"/></linearGradient><linearGradient id="q" x1="207.52" x2="253.71" xlink:href="#b" y1="85.8" y2="85.8"/><linearGradient id="r" x1="299.42" x2="230.97" xlink:href="#c" y1="156.03" y2="166.45"/><linearGradient id="s" x1="225.1" x2="255.32" xlink:href="#a" y1="35.18" y2="35.18"/><linearGradient id="t" x1="208.09" x2="238.88" xlink:href="#b" y1="79.76" y2="65.3"/><linearGradient id="u" x1="225.73" x2="286.5" xlink:href="#a" y1="88.51" y2="88.51"/><linearGradient id="v" x1="232.6" x2="255.42" xlink:href="#c" y1="208.37" y2="208.37"/><linearGradient id="w" x1="259.36" x2="282.17" xlink:href="#c" y1="192.31" y2="192.31"/><path d="m113.42 58.92c17.58-29.43 55.78-39.21 90.06-39.2s69 7.06 102.53 0c15.47-3.28 30.4-9.52 46.18-10.35 33.52-1.77 62.9 20.66 88.88 41.89l47.52 38.85c19.25 15.74 39 32.08 50.67 54.05a94.73 94.73 0 0 1 9 63c-5.48 26.52-22.45 51.63-18.21 78.38 2.13 13.44 9.47 25.4 14.24 38.15a103.18 103.18 0 0 1 -62 133.35c-35.84 12.76-75.23 4.92-112.92-.24-71.81-9.84-144.57-9.38-216.92-13.61-12.55-.73-25.9-1.91-35.83-9.62-14.29-11.1-16.51-31.53-16.92-49.63-1.09-47.7 2.36-95.4 7.12-142.88 3.5-34.86 1.43-61.56-9.51-94.31-7.65-22.93 3.31-66.41 16.11-87.83z" fill="#68e1fd" opacity=".18" transform="translate(-44.82 -5.37)"/><path d="m260.8 78 4.2 7.3 29.43-13.1 3 4.65s-30.56 30.42-32.39 30-13.81-21.68-13.81-21.68z" fill="url(#a)" transform="translate(-44.82 -5.37)"/><path d="m205.14 44.72 13.23 25.91-11.54 10.14z" fill="#68e1fd"/><path d="m205.14 44.72 13.23 25.91-11.54 10.14z" fill="url(#b)" opacity=".69"/><path d="m230.86 93.54 7.14-48.82 28.54-.38-9.39 49.58z" fill="#68e1fd"/><path d="m356.07 266.71h8.39v-60.42a15 15 0 0 1 15-15h39.15v-8.39h-39.19a23.37 23.37 0 0 0 -23.35 23.35z" fill="#68e1fd" transform="translate(-44.82 -5.37)"/><path d="m356.26 266.71h8.39v-60.42a15 15 0 0 1 15-15h39.16v-8.39h-39.21a23.37 23.37 0 0 0 -23.34 23.35z" fill="url(#c)" transform="translate(-44.82 -5.37)"/><rect fill="url(#d)" height="275.75" rx="34.55" width="218.92" x="24.43" y="133.32"/><path d="m276.76 384.5a4.2 4.2 0 0 1 4.19-4.19h36.93a15 15 0 0 0 14.95-15v-39.11h8.4v39.15a23.35 23.35 0 0 1 -23.35 23.35h-36.88a4.2 4.2 0 0 1 -4.24-4.2z" fill="#68e1fd" transform="translate(-44.82 -5.37)"/><path d="m433.3 397.73v-8.39h-60.42a15 15 0 0 1 -15-15v-39.11h-8.39v39.15a23.37 23.37 0 0 0 23.35 23.35z" fill="#68e1fd" transform="translate(-44.82 -5.37)"/><path d="m276.76 384.5a4.2 4.2 0 0 1 4.19-4.19h36.93a15 15 0 0 0 14.95-15v-39.11h8.4v39.15a23.35 23.35 0 0 1 -23.35 23.35h-36.88a4.2 4.2 0 0 1 -4.24-4.2z" fill="url(#e)" transform="translate(-44.82 -5.37)"/><path d="m433.3 397.73v-8.39h-60.42a15 15 0 0 1 -15-15v-39.11h-8.39v39.15a23.37 23.37 0 0 0 23.35 23.35z" fill="url(#f)" transform="translate(-44.82 -5.37)"/><path d="m557.24 465.78a14.19 14.19 0 0 1 -14.19 14.22h-469.57a14.19 14.19 0 0 1 -2.81-28.09 14.47 14.47 0 0 1 2.81-.28h469.57a14.19 14.19 0 0 1 14.19 14.15z" fill="#68e1fd" transform="translate(-44.82 -5.37)"/><path d="m33.39 391.07h181.21v61.45h-181.21z" fill="#68e1fd"/><path d="m33.39 391.07h181.21v45.05h-181.21z" fill="url(#g)"/><rect fill="#68e1fd" height="275.76" rx="34.55" width="218.92" y="133.32"/><path d="m263.74 301.93v78a34.56 34.56 0 0 1 -34.55 34.55h-149.82a34.56 34.56 0 0 1 -34.55-34.58v-78a34.55 34.55 0 0 1 34.55-34.55h149.82a34.55 34.55 0 0 1 34.55 34.58z" fill="url(#h)" transform="translate(-44.82 -5.37)"/><path d="m261.61 250.15h90.38v85.25h-90.38z" fill="#435276"/><rect fill="#68e1fd" height="33.68" rx="9.08" width="106.3" x="254.42" y="238.05"/><rect fill="#68e1fd" height="33.68" rx="9.08" width="106.3" x="254.42" y="276.99"/><rect fill="#68e1fd" height="33.68" rx="9.08" width="106.3" x="254.42" y="315.93"/><path d="m348.71 243.6h-8.39v-60.42a15 15 0 0 0 -15-15h-44.89a4.2 4.2 0 0 1 -4.2-4.2 4.2 4.2 0 0 1 4.2-4.19h44.93a23.34 23.34 0 0 1 23.35 23.35z" fill="#68e1fd" transform="translate(-44.82 -5.37)"/><path d="m348.71 243.6h-8.39v-60.42a15 15 0 0 0 -15-15h-44.89a4.2 4.2 0 0 1 -4.2-4.2 4.2 4.2 0 0 1 4.2-4.19h44.93a23.34 23.34 0 0 1 23.35 23.35z" fill="url(#i)" transform="translate(-44.82 -5.37)"/><circle cx="345.39" cy="254.25" fill="url(#j)" r="3.57"/><circle cx="336.43" cy="254.25" fill="url(#k)" r="3.57"/><circle cx="327.58" cy="254.25" fill="url(#l)" r="3.57"/><path d="m354.69 97.05h168.14a16.54 16.54 0 0 0 16.55-16.54 34.67 34.67 0 0 0 -34.67-34.67h-14.18a34.66 34.66 0 0 0 -34.66-34.66h-22.87a34.66 34.66 0 0 0 -34.67 34.66v7.09h-19.33a34.67 34.67 0 0 0 -34.64 33.43 10.32 10.32 0 0 0 10.33 10.69z" fill="#68e1fd" transform="translate(-44.82 -5.37)"/><path d="m162.51 97.05h-102a8.13 8.13 0 0 1 -8.14-8.13v-1.73a20.67 20.67 0 0 1 20.63-20.67h8.5a20.68 20.68 0 0 1 20.67-20.68h13.63a20.67 20.67 0 0 1 20.67 20.68v4.22h11.53a20.68 20.68 0 0 1 20.66 19.94 6.15 6.15 0 0 1 -6.15 6.37z" fill="#68e1fd" transform="translate(-44.82 -5.37)"/><rect fill="#fff" height="20.48" rx="10.24" width="164.4" x="27.62" y="199.36"/><rect fill="#68e1fd" height="13.37" rx="6.68" width="107.3" x="32.11" y="203.32"/><rect fill="#68e1fd" height="128.06" rx="16.04" width="101.66" x="369.78" y="133.32"/><rect fill="url(#m)" height="128.06" rx="16.04" width="52.81" x="418.62" y="133.32"/><path d="m516.26 154.74h-101.66a16 16 0 0 1 16-16.05h69.57a16 16 0 0 1 16.09 16.05z" fill="url(#n)" transform="translate(-44.82 -5.37)"/><path d="m516.26 250.71a16 16 0 0 1 -16.05 16h-69.57a16 16 0 0 1 -16-16z" fill="url(#o)" transform="translate(-44.82 -5.37)"/><path d="m545.75 444.34h-115.75v-146.83l85.91-1 31.16 23.22zm-111.33-4.34h107l1.28-118-28.2-21-80.08.9z" fill="#68e1fd" transform="translate(-44.82 -5.37)"/><path d="m545.94 323.3-26.26.43-4.59-25.64zm-22.58-4 12.87-.71-14.69-10.3z" fill="#68e1fd" transform="translate(-44.82 -5.37)"/><rect fill="#68e1fd" height="5.09" rx="2.54" width="77.47" x="406.32" y="324.1"/><rect fill="#68e1fd" height="5.09" rx="2.54" width="77.47" x="406.32" y="340.91"/><rect fill="#68e1fd" height="5.09" rx="2.54" width="77.47" x="406.32" y="357.72"/><rect fill="#68e1fd" height="5.09" rx="2.54" width="77.47" x="406.32" y="374.52"/><rect fill="#68e1fd" height="5.09" rx="2.54" width="77.47" x="406.32" y="391.33"/><rect fill="#68e1fd" height="5.09" rx="2.54" width="77.47" x="406.32" y="408.14"/><path d="m299.65 219.73h-22.08a1.87 1.87 0 0 1 -1.86-1.87 1.86 1.86 0 0 1 1.86-1.86h22.08a17.27 17.27 0 0 0 17.26-17.27v-37.11a20.21 20.21 0 0 1 20.21-20.21h44.23a18.56 18.56 0 0 0 18.55-18.55v-30h3.73v30a22.29 22.29 0 0 1 -22.28 22.28h-44.23a16.48 16.48 0 0 0 -16.48 16.48v37.11a21 21 0 0 1 -20.99 21z" fill="#68e1fd" transform="translate(-44.82 -5.37)"/><path d="m168.86 137.24h3.73v-2.18a20.2 20.2 0 0 0 -20.17-20.17h-19.42a15.58 15.58 0 0 1 -15.55-15.56v-3.06h-3.73v3.06a19.31 19.31 0 0 0 19.28 19.29h19.43a16.45 16.45 0 0 1 16.44 16.44z" fill="#68e1fd" transform="translate(-44.82 -5.37)"/><path d="m383.99 161.02h74.85v50.42h-74.85z" fill="#fff" opacity=".25"/><g transform="translate(-44.82 -5.37)"><path d="m487.38 466.06a14.19 14.19 0 0 1 -11.32 13.94h-402.58a14.19 14.19 0 0 1 -2.81-28.09h402.53a14.18 14.18 0 0 1 14.18 14.15z" fill="url(#p)"/><path d="m207.52 69v56h46.19v-59.8s.47-19.34-9.67-18.49-32.21-3.71-36.52 22.29z" fill="#68e1fd"/><path d="m207.52 69v56h46.19v-59.8s.47-19.34-9.67-18.49-32.21-3.71-36.52 22.29z" fill="url(#q)" opacity=".69"/><path d="m253.71 124.92s30 .94 38.5 15 20.28 49.58 20.28 49.58l-10.71 4.22-19.15-24.22z" fill="#fff"/><path d="m253.71 124.92s30 .94 38.5 15 20.28 49.58 20.28 49.58l-10.71 4.22-19.15-24.22z" fill="url(#r)"/><path d="m207.52 124.92s-4.14 20.66 6.76 24 44.31 6.76 44.31 6.76l16.53 54.83 13.71-6.2s-5.07-59.53-11.83-67-23.29-12.39-23.29-12.39z" fill="#fff"/><path d="m231 29.8a34.18 34.18 0 0 1 2.5-8.3 14.81 14.81 0 0 1 12.34-7.84 6.74 6.74 0 0 1 1.85.13 6.18 6.18 0 0 1 1.84.81 12.79 12.79 0 0 1 5.3 8.35 37.24 37.24 0 0 1 .25 10.12c-.25 3.68-.92 8-4.2 9.67-2.28 1.15-5 .56-7.47-.2a1.87 1.87 0 0 0 -1.57 0 1.73 1.73 0 0 0 -.58 1.21c-.56 3.58.59 7.3-.23 10.82a2.79 2.79 0 0 1 -1.27 2 3 3 0 0 1 -2 0 20.48 20.48 0 0 1 -8.66-4.69c-1-.93-3.63-2.54-4-3.86s1.52-4.17 2-5.47a92.64 92.64 0 0 0 3.9-12.75z" fill="url(#s)"/><path d="m208 69.05 14.27 27 15.21-11.26s-11.28-28.13-13.48-29.26-7.61-4.5-10.14-.84-6.34 9.57-5.86 14.36z" fill="url(#t)" opacity=".69"/><path d="m225.73 94.31s6.2 11 9 11.27 42.82-17.19 42.82-17.19l6.2-2s1.41-6.76 1.69-8.17 2.53-6.19-.57-6.76-7.87 3.41-7.87 3.41l-2.26 5.64-33.8 10.42-3.47-6.1z" fill="url(#u)"/><path d="m261.77 14.79c1.41-3.22.13-7.71-3.22-8.79-2.76-.9-5.69.67-8.59.73-2.47 0-4.83-1-7.28-1.29a12.34 12.34 0 0 0 -13 9.19 9.82 9.82 0 0 1 -.73 2.53c-1 1.81-3.56 2.56-4.06 4.57a5.26 5.26 0 0 0 .4 2.91l3.18 9.47c.36 1.06 1.17 2.36 2.23 2 .59-.2.87-.86 1.09-1.46l2.13-5.93c1.92-.17 1.5 4.3 3.41 4 1.24-.2 1-2 .69-3.26a6.35 6.35 0 0 1 5.23-7.33 7.75 7.75 0 0 0 2.73-.45 17 17 0 0 1 1.69-1.12c2.35-.88 4.84 1.09 7.52.07a11.82 11.82 0 0 0 6.58-5.84z" fill="#3f3d56"/></g><path d="m239.5 200.76 1.97 5.36 15.21-.28-19.15 8.73-3.66-11.83z" fill="#68e1fd"/><path d="m238.23 201.47 1.98 5.35 15.2-.28-19.15 8.73-3.66-11.83z" fill="url(#v)"/><path d="m266.26 184.71 1.97 5.35 15.21-.28-19.15 8.73-3.66-11.83z" fill="#68e1fd"/><path d="m264.99 185.41 1.97 5.36 15.22-.29-19.16 8.74-3.66-11.84z" fill="url(#w)"/></svg>